<mxfile host="app.diagrams.net" agent="Mozilla/5.0 (Windows NT 10.0; Win64; x64) AppleWebKit/537.36 (KHTML, like Gecko) Chrome/140.0.0.0 Safari/537.36" version="28.2.4">
  <diagram name="Page-1" id="oZmHASv1-ZAR0pNUPyI4">
    <mxGraphModel grid="1" page="1" gridSize="10" guides="1" tooltips="1" connect="1" arrows="1" fold="1" pageScale="1" pageWidth="827" pageHeight="1169" math="0" shadow="0">
      <root>
        <mxCell id="0" />
        <mxCell id="1" parent="0" />
        <mxCell id="Gm_sVPWIh6h-Mz3DKtBD-1" value="&lt;font style=&quot;font-size: 29px;&quot;&gt;&lt;b&gt;Data Flow Diagram(Data Lineage)&lt;/b&gt;&lt;/font&gt;" style="rounded=0;whiteSpace=wrap;html=1;fillColor=default;strokeColor=none;" vertex="1" parent="1">
          <mxGeometry x="40" y="10" width="490" height="60" as="geometry" />
        </mxCell>
        <mxCell id="Gm_sVPWIh6h-Mz3DKtBD-3" value="" style="rounded=0;whiteSpace=wrap;html=1;strokeColor=default;dashed=1;fillStyle=hatch;fillColor=none;" vertex="1" parent="1">
          <mxGeometry x="70" y="200" width="175" height="600" as="geometry" />
        </mxCell>
        <mxCell id="Gm_sVPWIh6h-Mz3DKtBD-4" value="&lt;font style=&quot;font-size: 24px;&quot;&gt;Sources&lt;/font&gt;" style="rounded=1;whiteSpace=wrap;html=1;strokeColor=none;fillColor=default;" vertex="1" parent="1">
          <mxGeometry x="97.53" y="180" width="113" height="40" as="geometry" />
        </mxCell>
        <mxCell id="Gm_sVPWIh6h-Mz3DKtBD-5" value="" style="image;aspect=fixed;html=1;points=[];align=center;fontSize=12;image=img/lib/azure2/general/Folder_Blank.svg;" vertex="1" parent="1">
          <mxGeometry x="117.07000000000001" y="365" width="73.93" height="60" as="geometry" />
        </mxCell>
        <mxCell id="Gm_sVPWIh6h-Mz3DKtBD-6" value="&lt;font style=&quot;font-size: 20px;&quot;&gt;&lt;b&gt;CRM&lt;/b&gt;&lt;/font&gt;" style="text;html=1;align=center;verticalAlign=middle;whiteSpace=wrap;rounded=0;" vertex="1" parent="1">
          <mxGeometry x="124.03" y="430" width="60" height="30" as="geometry" />
        </mxCell>
        <mxCell id="Gm_sVPWIh6h-Mz3DKtBD-7" value="" style="image;aspect=fixed;html=1;points=[];align=center;fontSize=12;image=img/lib/azure2/general/Folder_Blank.svg;" vertex="1" parent="1">
          <mxGeometry x="117.07" y="590" width="73.93" height="60" as="geometry" />
        </mxCell>
        <mxCell id="Gm_sVPWIh6h-Mz3DKtBD-8" value="&lt;span style=&quot;font-size: 20px;&quot;&gt;&lt;b&gt;ERP&lt;/b&gt;&lt;/span&gt;" style="text;html=1;align=center;verticalAlign=middle;whiteSpace=wrap;rounded=0;" vertex="1" parent="1">
          <mxGeometry x="124.03" y="660" width="60" height="30" as="geometry" />
        </mxCell>
        <mxCell id="Gm_sVPWIh6h-Mz3DKtBD-12" value="" style="rounded=0;whiteSpace=wrap;html=1;fillStyle=hatch;" vertex="1" parent="1">
          <mxGeometry x="360" y="250" width="210" height="550" as="geometry" />
        </mxCell>
        <mxCell id="Gm_sVPWIh6h-Mz3DKtBD-13" value="&lt;font style=&quot;font-size: 24px;&quot;&gt;Bronze Layer&lt;/font&gt;" style="rounded=1;whiteSpace=wrap;html=1;fillStyle=hatch;fillColor=#ffe6cc;strokeColor=#d79b00;" vertex="1" parent="1">
          <mxGeometry x="360" y="180" width="210" height="60" as="geometry" />
        </mxCell>
        <mxCell id="FYLLvFuc7rksCb3Sy98m-17" style="edgeStyle=orthogonalEdgeStyle;rounded=0;orthogonalLoop=1;jettySize=auto;html=1;" edge="1" parent="1" source="Gm_sVPWIh6h-Mz3DKtBD-14">
          <mxGeometry relative="1" as="geometry">
            <mxPoint x="690" y="352.5" as="targetPoint" />
          </mxGeometry>
        </mxCell>
        <mxCell id="Gm_sVPWIh6h-Mz3DKtBD-14" value="&lt;font style=&quot;font-size: 21px;&quot;&gt;crm_sales_details&lt;/font&gt;" style="rounded=1;whiteSpace=wrap;html=1;fillStyle=hatch;" vertex="1" parent="1">
          <mxGeometry x="375" y="335" width="180" height="35" as="geometry" />
        </mxCell>
        <mxCell id="Gm_sVPWIh6h-Mz3DKtBD-16" value="&lt;font style=&quot;font-size: 21px;&quot;&gt;crm_prd_info&lt;/font&gt;" style="rounded=1;whiteSpace=wrap;html=1;fillStyle=hatch;" vertex="1" parent="1">
          <mxGeometry x="375" y="430" width="180" height="30" as="geometry" />
        </mxCell>
        <mxCell id="Gm_sVPWIh6h-Mz3DKtBD-27" style="edgeStyle=orthogonalEdgeStyle;rounded=0;orthogonalLoop=1;jettySize=auto;html=1;exitX=0.5;exitY=1;exitDx=0;exitDy=0;" edge="1" parent="1">
          <mxGeometry relative="1" as="geometry">
            <mxPoint x="465" y="410" as="sourcePoint" />
            <mxPoint x="465" y="410" as="targetPoint" />
          </mxGeometry>
        </mxCell>
        <mxCell id="Gm_sVPWIh6h-Mz3DKtBD-33" value="&lt;font style=&quot;font-size: 21px;&quot;&gt;erp_cost_az1&lt;/font&gt;" style="rounded=1;whiteSpace=wrap;html=1;fillStyle=hatch;" vertex="1" parent="1">
          <mxGeometry x="375" y="540" width="180" height="30" as="geometry" />
        </mxCell>
        <mxCell id="FYLLvFuc7rksCb3Sy98m-24" style="edgeStyle=orthogonalEdgeStyle;rounded=0;orthogonalLoop=1;jettySize=auto;html=1;" edge="1" parent="1" source="Gm_sVPWIh6h-Mz3DKtBD-34">
          <mxGeometry relative="1" as="geometry">
            <mxPoint x="690" y="615" as="targetPoint" />
          </mxGeometry>
        </mxCell>
        <mxCell id="Gm_sVPWIh6h-Mz3DKtBD-34" value="&lt;font style=&quot;font-size: 21px;&quot;&gt;erp_loc_a101&lt;/font&gt;" style="rounded=1;whiteSpace=wrap;html=1;fillStyle=hatch;" vertex="1" parent="1">
          <mxGeometry x="375" y="600" width="180" height="30" as="geometry" />
        </mxCell>
        <mxCell id="FYLLvFuc7rksCb3Sy98m-26" style="edgeStyle=orthogonalEdgeStyle;rounded=0;orthogonalLoop=1;jettySize=auto;html=1;" edge="1" parent="1" source="Gm_sVPWIh6h-Mz3DKtBD-35">
          <mxGeometry relative="1" as="geometry">
            <mxPoint x="690" y="675" as="targetPoint" />
          </mxGeometry>
        </mxCell>
        <mxCell id="Gm_sVPWIh6h-Mz3DKtBD-35" value="&lt;span style=&quot;font-size: 21px;&quot;&gt;erp_px_cat_g1v2&lt;/span&gt;" style="rounded=1;whiteSpace=wrap;html=1;fillStyle=hatch;" vertex="1" parent="1">
          <mxGeometry x="375" y="660" width="180" height="30" as="geometry" />
        </mxCell>
        <mxCell id="Gm_sVPWIh6h-Mz3DKtBD-36" style="edgeStyle=orthogonalEdgeStyle;rounded=0;orthogonalLoop=1;jettySize=auto;html=1;entryX=-0.008;entryY=0.558;entryDx=0;entryDy=0;entryPerimeter=0;" edge="1" parent="1">
          <mxGeometry relative="1" as="geometry">
            <mxPoint x="191" y="619.9266666666665" as="sourcePoint" />
            <mxPoint x="358.31999999999994" y="556.7599999999998" as="targetPoint" />
            <Array as="points">
              <mxPoint x="276" y="619.8599999999999" />
              <mxPoint x="276" y="556.8599999999999" />
            </Array>
          </mxGeometry>
        </mxCell>
        <mxCell id="Gm_sVPWIh6h-Mz3DKtBD-38" style="edgeStyle=orthogonalEdgeStyle;rounded=0;orthogonalLoop=1;jettySize=auto;html=1;entryX=0;entryY=0.673;entryDx=0;entryDy=0;entryPerimeter=0;" edge="1" parent="1" source="Gm_sVPWIh6h-Mz3DKtBD-7" target="Gm_sVPWIh6h-Mz3DKtBD-12">
          <mxGeometry relative="1" as="geometry" />
        </mxCell>
        <mxCell id="Gm_sVPWIh6h-Mz3DKtBD-41" style="edgeStyle=orthogonalEdgeStyle;rounded=0;orthogonalLoop=1;jettySize=auto;html=1;entryX=0;entryY=0.782;entryDx=0;entryDy=0;entryPerimeter=0;" edge="1" parent="1" source="Gm_sVPWIh6h-Mz3DKtBD-7" target="Gm_sVPWIh6h-Mz3DKtBD-12">
          <mxGeometry relative="1" as="geometry" />
        </mxCell>
        <mxCell id="Gm_sVPWIh6h-Mz3DKtBD-43" style="edgeStyle=orthogonalEdgeStyle;rounded=0;orthogonalLoop=1;jettySize=auto;html=1;entryX=0.011;entryY=0.185;entryDx=0;entryDy=0;entryPerimeter=0;" edge="1" parent="1" source="Gm_sVPWIh6h-Mz3DKtBD-5" target="Gm_sVPWIh6h-Mz3DKtBD-12">
          <mxGeometry relative="1" as="geometry">
            <Array as="points">
              <mxPoint x="276" y="395" />
              <mxPoint x="276" y="352" />
            </Array>
          </mxGeometry>
        </mxCell>
        <mxCell id="Gm_sVPWIh6h-Mz3DKtBD-44" style="edgeStyle=orthogonalEdgeStyle;rounded=0;orthogonalLoop=1;jettySize=auto;html=1;entryX=0.005;entryY=0.267;entryDx=0;entryDy=0;entryPerimeter=0;" edge="1" parent="1">
          <mxGeometry relative="1" as="geometry">
            <mxPoint x="191" y="394.07" as="sourcePoint" />
            <mxPoint x="361.04999999999995" y="395.92000000000013" as="targetPoint" />
            <Array as="points">
              <mxPoint x="277" y="394" />
              <mxPoint x="277" y="396" />
            </Array>
          </mxGeometry>
        </mxCell>
        <mxCell id="Gm_sVPWIh6h-Mz3DKtBD-45" style="edgeStyle=orthogonalEdgeStyle;rounded=0;orthogonalLoop=1;jettySize=auto;html=1;entryX=0.005;entryY=0.355;entryDx=0;entryDy=0;entryPerimeter=0;" edge="1" parent="1" source="Gm_sVPWIh6h-Mz3DKtBD-5" target="Gm_sVPWIh6h-Mz3DKtBD-12">
          <mxGeometry relative="1" as="geometry" />
        </mxCell>
        <mxCell id="UvZZ7Q7l7zvq1JBCOmF8-2" value="&lt;font style=&quot;font-size: 21px;&quot;&gt;crm_cust_info&lt;/font&gt;" style="rounded=1;whiteSpace=wrap;html=1;fillStyle=hatch;" vertex="1" parent="1">
          <mxGeometry x="375" y="380" width="180" height="35" as="geometry" />
        </mxCell>
        <mxCell id="FYLLvFuc7rksCb3Sy98m-12" value="" style="group" connectable="0" vertex="1" parent="1">
          <mxGeometry x="690" y="180" width="210" height="620" as="geometry" />
        </mxCell>
        <mxCell id="FYLLvFuc7rksCb3Sy98m-3" value="" style="rounded=0;whiteSpace=wrap;html=1;fillStyle=hatch;" vertex="1" parent="FYLLvFuc7rksCb3Sy98m-12">
          <mxGeometry y="70" width="210" height="550" as="geometry" />
        </mxCell>
        <mxCell id="FYLLvFuc7rksCb3Sy98m-4" value="&lt;font style=&quot;font-size: 24px;&quot;&gt;Silver Layer&lt;/font&gt;" style="rounded=1;whiteSpace=wrap;html=1;fillStyle=hatch;fillColor=#dae8fc;strokeColor=#6c8ebf;" vertex="1" parent="FYLLvFuc7rksCb3Sy98m-12">
          <mxGeometry width="210" height="60" as="geometry" />
        </mxCell>
        <mxCell id="FYLLvFuc7rksCb3Sy98m-5" value="&lt;font style=&quot;font-size: 21px;&quot;&gt;crm_sales_details&lt;/font&gt;" style="rounded=1;whiteSpace=wrap;html=1;fillStyle=hatch;" vertex="1" parent="FYLLvFuc7rksCb3Sy98m-12">
          <mxGeometry x="15" y="155" width="180" height="35" as="geometry" />
        </mxCell>
        <mxCell id="FYLLvFuc7rksCb3Sy98m-6" value="&lt;font style=&quot;font-size: 21px;&quot;&gt;crm_prd_info&lt;/font&gt;" style="rounded=1;whiteSpace=wrap;html=1;fillStyle=hatch;" vertex="1" parent="FYLLvFuc7rksCb3Sy98m-12">
          <mxGeometry x="15" y="250" width="180" height="30" as="geometry" />
        </mxCell>
        <mxCell id="FYLLvFuc7rksCb3Sy98m-7" style="edgeStyle=orthogonalEdgeStyle;rounded=0;orthogonalLoop=1;jettySize=auto;html=1;exitX=0.5;exitY=1;exitDx=0;exitDy=0;" edge="1" parent="FYLLvFuc7rksCb3Sy98m-12">
          <mxGeometry relative="1" as="geometry">
            <mxPoint x="105" y="230" as="sourcePoint" />
            <mxPoint x="105" y="230" as="targetPoint" />
          </mxGeometry>
        </mxCell>
        <mxCell id="FYLLvFuc7rksCb3Sy98m-8" value="&lt;font style=&quot;font-size: 21px;&quot;&gt;erp_cost_az1&lt;/font&gt;" style="rounded=1;whiteSpace=wrap;html=1;fillStyle=hatch;" vertex="1" parent="FYLLvFuc7rksCb3Sy98m-12">
          <mxGeometry x="15" y="360" width="165" height="30" as="geometry" />
        </mxCell>
        <mxCell id="FYLLvFuc7rksCb3Sy98m-9" value="&lt;font style=&quot;font-size: 21px;&quot;&gt;erp_loc_a101&lt;/font&gt;" style="rounded=1;whiteSpace=wrap;html=1;fillStyle=hatch;" vertex="1" parent="FYLLvFuc7rksCb3Sy98m-12">
          <mxGeometry x="15" y="420" width="180" height="30" as="geometry" />
        </mxCell>
        <mxCell id="FYLLvFuc7rksCb3Sy98m-10" value="&lt;span style=&quot;font-size: 21px;&quot;&gt;erp_px_cat_g1v2&lt;/span&gt;" style="rounded=1;whiteSpace=wrap;html=1;fillStyle=hatch;" vertex="1" parent="FYLLvFuc7rksCb3Sy98m-12">
          <mxGeometry x="15" y="480" width="180" height="30" as="geometry" />
        </mxCell>
        <mxCell id="FYLLvFuc7rksCb3Sy98m-11" value="&lt;font style=&quot;font-size: 21px;&quot;&gt;crm_cust_info&lt;/font&gt;" style="rounded=1;whiteSpace=wrap;html=1;fillStyle=hatch;" vertex="1" parent="FYLLvFuc7rksCb3Sy98m-12">
          <mxGeometry x="15" y="200" width="180" height="35" as="geometry" />
        </mxCell>
        <mxCell id="FYLLvFuc7rksCb3Sy98m-20" style="edgeStyle=orthogonalEdgeStyle;rounded=0;orthogonalLoop=1;jettySize=auto;html=1;entryX=0.018;entryY=0.27;entryDx=0;entryDy=0;entryPerimeter=0;" edge="1" parent="1" source="UvZZ7Q7l7zvq1JBCOmF8-2" target="FYLLvFuc7rksCb3Sy98m-3">
          <mxGeometry relative="1" as="geometry" />
        </mxCell>
        <mxCell id="FYLLvFuc7rksCb3Sy98m-22" style="edgeStyle=orthogonalEdgeStyle;rounded=0;orthogonalLoop=1;jettySize=auto;html=1;entryX=0.018;entryY=0.356;entryDx=0;entryDy=0;entryPerimeter=0;" edge="1" parent="1" source="Gm_sVPWIh6h-Mz3DKtBD-16" target="FYLLvFuc7rksCb3Sy98m-3">
          <mxGeometry relative="1" as="geometry" />
        </mxCell>
        <mxCell id="FYLLvFuc7rksCb3Sy98m-23" style="edgeStyle=orthogonalEdgeStyle;rounded=0;orthogonalLoop=1;jettySize=auto;html=1;entryX=0;entryY=0.555;entryDx=0;entryDy=0;entryPerimeter=0;" edge="1" parent="1" source="Gm_sVPWIh6h-Mz3DKtBD-33" target="FYLLvFuc7rksCb3Sy98m-3">
          <mxGeometry relative="1" as="geometry" />
        </mxCell>
        <mxCell id="Se-OuBL1emlnVAzB6pFi-1" value="" style="group;fillColor=none;" connectable="0" vertex="1" parent="1">
          <mxGeometry x="1010" y="180" width="210" height="620" as="geometry" />
        </mxCell>
        <mxCell id="Se-OuBL1emlnVAzB6pFi-2" value="" style="rounded=0;whiteSpace=wrap;html=1;fillStyle=hatch;" vertex="1" parent="Se-OuBL1emlnVAzB6pFi-1">
          <mxGeometry y="70" width="210" height="550" as="geometry" />
        </mxCell>
        <mxCell id="Se-OuBL1emlnVAzB6pFi-3" value="&lt;font style=&quot;font-size: 24px;&quot;&gt;Gold Layer&lt;/font&gt;" style="rounded=1;whiteSpace=wrap;html=1;fillStyle=hatch;fillColor=#d5e8d4;strokeColor=#82b366;" vertex="1" parent="Se-OuBL1emlnVAzB6pFi-1">
          <mxGeometry width="210" height="60" as="geometry" />
        </mxCell>
        <mxCell id="Se-OuBL1emlnVAzB6pFi-4" value="&lt;font style=&quot;font-size: 21px;&quot;&gt;fact_sales&lt;/font&gt;" style="rounded=1;whiteSpace=wrap;html=1;fillStyle=hatch;" vertex="1" parent="Se-OuBL1emlnVAzB6pFi-1">
          <mxGeometry x="15" y="260" width="180" height="35" as="geometry" />
        </mxCell>
        <mxCell id="Se-OuBL1emlnVAzB6pFi-5" value="&lt;font style=&quot;font-size: 21px;&quot;&gt;dim_products&lt;/font&gt;" style="rounded=1;whiteSpace=wrap;html=1;fillStyle=hatch;" vertex="1" parent="Se-OuBL1emlnVAzB6pFi-1">
          <mxGeometry x="15" y="360" width="180" height="30" as="geometry" />
        </mxCell>
        <mxCell id="Se-OuBL1emlnVAzB6pFi-6" style="edgeStyle=orthogonalEdgeStyle;rounded=0;orthogonalLoop=1;jettySize=auto;html=1;exitX=0.5;exitY=1;exitDx=0;exitDy=0;" edge="1" parent="Se-OuBL1emlnVAzB6pFi-1">
          <mxGeometry relative="1" as="geometry">
            <mxPoint x="105" y="230" as="sourcePoint" />
            <mxPoint x="105" y="230" as="targetPoint" />
          </mxGeometry>
        </mxCell>
        <mxCell id="Se-OuBL1emlnVAzB6pFi-10" value="&lt;font style=&quot;font-size: 21px;&quot;&gt;dim_customers&lt;/font&gt;" style="rounded=1;whiteSpace=wrap;html=1;fillStyle=hatch;" vertex="1" parent="Se-OuBL1emlnVAzB6pFi-1">
          <mxGeometry x="15" y="310" width="180" height="35" as="geometry" />
        </mxCell>
        <mxCell id="Se-OuBL1emlnVAzB6pFi-18" value="" style="endArrow=classic;html=1;rounded=0;" edge="1" parent="1" target="Se-OuBL1emlnVAzB6pFi-2">
          <mxGeometry width="50" height="50" relative="1" as="geometry">
            <mxPoint x="900" y="360" as="sourcePoint" />
            <mxPoint x="1000" y="450" as="targetPoint" />
          </mxGeometry>
        </mxCell>
        <mxCell id="Se-OuBL1emlnVAzB6pFi-19" value="" style="endArrow=classic;html=1;rounded=0;exitX=1.014;exitY=0.284;exitDx=0;exitDy=0;exitPerimeter=0;" edge="1" parent="1" source="FYLLvFuc7rksCb3Sy98m-3">
          <mxGeometry width="50" height="50" relative="1" as="geometry">
            <mxPoint x="920" y="500" as="sourcePoint" />
            <mxPoint x="1010" y="500" as="targetPoint" />
          </mxGeometry>
        </mxCell>
        <mxCell id="Se-OuBL1emlnVAzB6pFi-20" value="" style="endArrow=classic;html=1;rounded=0;exitX=0.952;exitY=0.564;exitDx=0;exitDy=0;exitPerimeter=0;" edge="1" parent="1" source="FYLLvFuc7rksCb3Sy98m-3">
          <mxGeometry width="50" height="50" relative="1" as="geometry">
            <mxPoint x="960" y="550" as="sourcePoint" />
            <mxPoint x="1010" y="500" as="targetPoint" />
          </mxGeometry>
        </mxCell>
        <mxCell id="Se-OuBL1emlnVAzB6pFi-24" value="" style="endArrow=classic;html=1;rounded=0;entryX=0.005;entryY=0.573;entryDx=0;entryDy=0;entryPerimeter=0;" edge="1" parent="1" target="Se-OuBL1emlnVAzB6pFi-2">
          <mxGeometry width="50" height="50" relative="1" as="geometry">
            <mxPoint x="900" y="450" as="sourcePoint" />
            <mxPoint x="950" y="400" as="targetPoint" />
          </mxGeometry>
        </mxCell>
        <mxCell id="Se-OuBL1emlnVAzB6pFi-25" value="" style="endArrow=classic;html=1;rounded=0;entryX=0;entryY=0.582;entryDx=0;entryDy=0;entryPerimeter=0;" edge="1" parent="1" target="Se-OuBL1emlnVAzB6pFi-2">
          <mxGeometry width="50" height="50" relative="1" as="geometry">
            <mxPoint x="900" y="670" as="sourcePoint" />
            <mxPoint x="1000" y="570" as="targetPoint" />
          </mxGeometry>
        </mxCell>
        <mxCell id="Se-OuBL1emlnVAzB6pFi-26" value="" style="endArrow=classic;html=1;rounded=0;" edge="1" parent="1">
          <mxGeometry width="50" height="50" relative="1" as="geometry">
            <mxPoint x="900" y="610" as="sourcePoint" />
            <mxPoint x="1010" y="510" as="targetPoint" />
          </mxGeometry>
        </mxCell>
      </root>
    </mxGraphModel>
  </diagram>
</mxfile>
